<?xml version="1.0" encoding="UTF-8" standalone="no"?>
<!-- Created with Inkscape (http://www.inkscape.org/) -->
<svg
   xmlns:dc="http://purl.org/dc/elements/1.1/"
   xmlns:cc="http://creativecommons.org/ns#"
   xmlns:rdf="http://www.w3.org/1999/02/22-rdf-syntax-ns#"
   xmlns:svg="http://www.w3.org/2000/svg"
   xmlns="http://www.w3.org/2000/svg"
   xmlns:sodipodi="http://sodipodi.sourceforge.net/DTD/sodipodi-0.dtd"
   xmlns:inkscape="http://www.inkscape.org/namespaces/inkscape"
   version="1.0"
   width="627.76898"
   height="550.45001"
   viewBox="0 0 627.769 550.45"
   id="Layer_3"
   xml:space="preserve"
   sodipodi:version="0.32"
   inkscape:version="0.46"
   sodipodi:docname="Achtung-yellow.svg"
   inkscape:output_extension="org.inkscape.output.svg.inkscape"
   inkscape:export-filename="/home/phoenixx/workspace/fsmi_vkrit/gfx/warning.png"
   inkscape:export-xdpi="7.1700001"
   inkscape:export-ydpi="7.1700001"><metadata
   id="metadata10"><rdf:RDF><cc:Work
       rdf:about=""><dc:format>image/svg+xml</dc:format><dc:type
         rdf:resource="http://purl.org/dc/dcmitype/StillImage" /></cc:Work></rdf:RDF></metadata><sodipodi:namedview
   inkscape:window-height="672"
   inkscape:window-width="640"
   inkscape:pageshadow="2"
   inkscape:pageopacity="0.0"
   guidetolerance="10.0"
   gridtolerance="10.0"
   objecttolerance="10.0"
   borderopacity="1.0"
   bordercolor="#666666"
   pagecolor="#ffffff"
   id="base"
   showgrid="false"
   inkscape:zoom="0.87564718"
   inkscape:cx="313.88449"
   inkscape:cy="275.22501"
   inkscape:window-x="0"
   inkscape:window-y="0"
   inkscape:current-layer="Layer_3" /><defs
   id="defs2424"><inkscape:perspective
     sodipodi:type="inkscape:persp3d"
     inkscape:vp_x="0 : 275.22501 : 1"
     inkscape:vp_y="0 : 1000 : 0"
     inkscape:vp_z="627.76898 : 275.22501 : 1"
     inkscape:persp3d-origin="313.88449 : 183.48334 : 1"
     id="perspective12" /><inkscape:perspective
     id="perspective11" /></defs>
<path
   d="M 614.574,504.94 L 335.167,20.996 C 330.788,13.412 322.696,8.738 313.938,8.738 C 305.179,8.738 297.087,13.412 292.708,20.996 L 13.303,504.94 C 8.925,512.524 8.925,521.87 13.303,529.456 C 17.682,537.04 25.775,541.712 34.533,541.712 L 593.344,541.712 C 602.102,541.712 610.196,537.04 614.574,529.456 C 618.953,521.87 618.951,512.524 614.574,504.94 z"
   id="path2231"
   style="fill:#f4c430;fill-opacity:1" />
<polygon
   points="93.977,482.877 533.902,482.877 313.938,101.892 93.977,482.877 "
   id="polygon2233"
   style="fill:#ffffff" />
<path
   d="M 291.873,343.36 C 293.076,354.848 295.082,363.404 297.891,369.024 C 300.699,374.647 305.714,377.454 312.934,377.454 C 313.275,377.454 314.601,377.454 314.94,377.454 C 322.161,377.454 327.176,374.647 329.985,369.024 C 332.794,363.404 334.799,354.848 336.003,343.36 L 342.423,254.607 C 343.626,237.314 344.228,224.9 344.228,217.364 C 344.228,207.113 341.32,199.113 335.503,193.369 C 329.974,187.911 322.115,184.78 313.937,184.78 C 305.759,184.78 297.901,187.911 292.374,193.369 C 286.558,199.113 283.648,207.113 283.648,217.364 C 283.648,224.9 284.25,237.314 285.453,254.607 L 291.873,343.36 z"
   id="path2235" />
<circle
   cx="313.93799"
   cy="430.79401"
   r="30.747"
   id="circle2237" />
</svg>